<svg width="190" height="146" viewBox="0 0 190 146" fill="none" xmlns="http://www.w3.org/2000/svg">
<path d="M60.8 145.4C49.2 145.4 38.8667 142.533 29.8 136.8C20.7333 131.067 13.6 122.8 8.4 112C3.33333 101.067 0.8 88.0667 0.8 73C0.8 57.9333 3.33333 45 8.4 34.2C13.6 23.2667 20.7333 14.9333 29.8 9.19999C38.8667 3.46666 49.2 0.599998 60.8 0.599998C72.4 0.599998 82.7333 3.46666 91.8 9.19999C100.867 14.9333 107.933 23.2667 113 34.2C118.2 45 120.8 57.9333 120.8 73C120.8 88.0667 118.2 101.067 113 112C107.933 122.8 100.867 131.067 91.8 136.8C82.7333 142.533 72.4 145.4 60.8 145.4ZM60.8 118C69.3333 118 76 114.333 80.8 107C85.7333 99.6667 88.2 88.3333 88.2 73C88.2 57.6667 85.7333 46.3333 80.8 39C76 31.6667 69.3333 28 60.8 28C52.4 28 45.7333 31.6667 40.8 39C36 46.3333 33.6 57.6667 33.6 73C33.6 88.3333 36 99.6667 40.8 107C45.7333 114.333 52.4 118 60.8 118ZM189.37 2.99999V143H156.97V29H128.97V2.99999H189.37Z" fill="#C4C9E9" fill-opacity="0.13"/>
</svg>
