<svg width="240" height="146" viewBox="0 0 240 146" fill="none" xmlns="http://www.w3.org/2000/svg">
<path d="M60.8 145.4C49.2 145.4 38.8667 142.533 29.8 136.8C20.7333 131.067 13.6 122.8 8.4 112C3.33333 101.067 0.8 88.0667 0.8 73C0.8 57.9333 3.33333 45 8.4 34.2C13.6 23.2667 20.7333 14.9333 29.8 9.19999C38.8667 3.46666 49.2 0.599998 60.8 0.599998C72.4 0.599998 82.7333 3.46666 91.8 9.19999C100.867 14.9333 107.933 23.2667 113 34.2C118.2 45 120.8 57.9333 120.8 73C120.8 88.0667 118.2 101.067 113 112C107.933 122.8 100.867 131.067 91.8 136.8C82.7333 142.533 72.4 145.4 60.8 145.4ZM60.8 118C69.3333 118 76 114.333 80.8 107C85.7333 99.6667 88.2 88.3333 88.2 73C88.2 57.6667 85.7333 46.3333 80.8 39C76 31.6667 69.3333 28 60.8 28C52.4 28 45.7333 31.6667 40.8 39C36 46.3333 33.6 57.6667 33.6 73C33.6 88.3333 36 99.6667 40.8 107C45.7333 114.333 52.4 118 60.8 118ZM239.97 116.6V143H134.17V122L188.17 71C193.904 65.5333 197.77 60.8667 199.77 57C201.77 53 202.77 49.0667 202.77 45.2C202.77 39.6 200.837 35.3333 196.97 32.4C193.237 29.3333 187.704 27.8 180.37 27.8C174.237 27.8 168.704 29 163.77 31.4C158.837 33.6667 154.704 37.1333 151.37 41.8L127.77 26.6C133.237 18.4667 140.77 12.1333 150.37 7.59999C159.97 2.93333 170.97 0.599998 183.37 0.599998C193.77 0.599998 202.837 2.33333 210.57 5.79999C218.437 9.13333 224.504 13.9333 228.77 20.2C233.17 26.3333 235.37 33.6 235.37 42C235.37 49.6 233.77 56.7333 230.57 63.4C227.37 70.0667 221.17 77.6667 211.97 86.2L179.77 116.6H239.97Z" fill="#C4C9E9" fill-opacity="0.13"/>
</svg>
