<svg width="26" height="25" viewBox="0 0 26 25" fill="none" xmlns="http://www.w3.org/2000/svg">
<g clip-path="url(#clip0_17_500)">
<path d="M21.5313 0.452515C20.3471 0.452515 19.3837 1.41586 19.3837 2.60007C19.3837 3.0804 19.5479 3.51979 19.8153 3.87791L16.3128 7.67841C16.149 7.63828 15.9805 7.61103 15.8045 7.61103C15.3649 7.61103 14.9564 7.74475 14.6157 7.97229L12.1181 6.09963C12.1815 5.89733 12.2252 5.68639 12.2252 5.46347C12.2252 4.27926 11.2619 3.31592 10.0777 3.31592C8.89346 3.31592 7.93012 4.27926 7.93012 5.46347C7.93012 5.68639 7.97388 5.89733 8.03726 6.09963L5.53965 7.97229C5.19891 7.74475 4.79049 7.61103 4.35086 7.61103C3.16665 7.61103 2.20331 8.57437 2.20331 9.75858C2.20331 10.9428 3.16665 11.9061 4.35086 11.9061C5.53507 11.9061 6.49842 10.9428 6.49842 9.75858C6.49842 9.53566 6.45465 9.32473 6.39128 9.12243L8.88888 7.24976C9.22958 7.47731 9.63804 7.61103 10.0777 7.61103C10.5173 7.61103 10.9257 7.47731 11.2665 7.24976L13.7641 9.12243C13.7007 9.32473 13.6569 9.53566 13.6569 9.75858C13.6569 10.9428 14.6203 11.9061 15.8045 11.9061C16.9887 11.9061 17.952 10.9428 17.952 9.75858C17.952 9.27824 17.7879 8.83885 17.5204 8.48074L21.0229 4.68024C21.1867 4.72037 21.3553 4.74762 21.5313 4.74762C22.7155 4.74762 23.6788 3.78428 23.6788 2.60007C23.6788 1.41586 22.7155 0.452515 21.5313 0.452515Z" fill="#AB65DC"/>
<path d="M11.5094 11.9061H8.64597C8.25029 11.9061 7.93011 12.2263 7.93011 12.622V22.0235H12.2252V12.622C12.2252 12.2263 11.905 11.9061 11.5094 11.9061Z" fill="#AB65DC"/>
<path d="M17.2362 14.7695H14.3728C13.9771 14.7695 13.6569 15.0897 13.6569 15.4854V22.0235H17.952V15.4854C17.952 15.0897 17.6319 14.7695 17.2362 14.7695Z" fill="#AB65DC"/>
<path d="M22.963 9.04272H20.0996C19.7039 9.04272 19.3837 9.3629 19.3837 9.75858V22.0235H23.6788V9.75858C23.6788 9.3629 23.3587 9.04272 22.963 9.04272Z" fill="#AB65DC"/>
<path d="M5.78256 16.2013H2.91916C2.52348 16.2013 2.20331 16.5215 2.20331 16.9171V22.0236H6.49842V16.9171C6.49842 16.5215 6.17824 16.2013 5.78256 16.2013Z" fill="#AB65DC"/>
<path d="M24.4424 23.4552C21.2457 23.4552 19.7785 23.4552 19.199 23.4552C18.9341 23.4552 18.8395 23.4552 18.8402 23.4552C17.7854 23.4552 13.8592 23.4552 1.43973 23.4552C1.04405 23.4552 0.723877 23.7754 0.723877 24.1711C0.723877 24.5667 1.04405 24.8869 1.43973 24.8869C10.1025 24.8869 16.35 24.8869 24.4424 24.8869C24.8381 24.8869 25.1583 24.5667 25.1583 24.1711C25.1583 23.7754 24.8381 23.4552 24.4424 23.4552Z" fill="#AB65DC"/>
</g>
<defs>
<clipPath id="clip0_17_500">
<rect width="24.4344" height="24.4344" fill="white" transform="translate(0.723877 0.452515)"/>
</clipPath>
</defs>
</svg>
