<svg width="24" height="24" viewBox="0 0 24 24" fill="none" xmlns="http://www.w3.org/2000/svg">
<path d="M3.42857 17.1428C1.53814 17.1428 0 18.681 0 20.5714C0 22.4618 1.53814 24 3.42857 24C5.319 24 6.85714 22.4618 6.85714 20.5714C6.85714 18.681 5.319 17.1428 3.42857 17.1428Z" fill="#AB65DC"/>
<path d="M12 17.1428C10.1096 17.1428 8.57141 18.681 8.57141 20.5714C8.57141 22.4618 10.1096 24 12 24C13.8904 24 15.4286 22.4618 15.4286 20.5714C15.4286 18.681 13.8904 17.1428 12 17.1428Z" fill="#AB65DC"/>
<path d="M20.5714 17.1428C18.681 17.1428 17.1428 18.681 17.1428 20.5714C17.1428 22.4618 18.681 24 20.5714 24C22.4618 24 24 22.4618 24 20.5714C24 18.681 22.4618 17.1428 20.5714 17.1428Z" fill="#AB65DC"/>
<path d="M3.42857 8.57141C1.53814 8.57141 0 10.1096 0 12C0 13.8904 1.53814 15.4286 3.42857 15.4286C5.319 15.4286 6.85714 13.8904 6.85714 12C6.85714 10.1096 5.319 8.57141 3.42857 8.57141Z" fill="#AB65DC"/>
<path d="M12 8.57141C10.1096 8.57141 8.57141 10.1096 8.57141 12C8.57141 13.8904 10.1096 15.4286 12 15.4286C13.8904 15.4286 15.4286 13.8904 15.4286 12C15.4286 10.1096 13.8904 8.57141 12 8.57141Z" fill="#AB65DC"/>
<path d="M20.5714 8.57141C18.681 8.57141 17.1428 10.1096 17.1428 12C17.1428 13.8904 18.681 15.4286 20.5714 15.4286C22.4618 15.4286 24 13.8904 24 12C24 10.1096 22.4618 8.57141 20.5714 8.57141Z" fill="#AB65DC"/>
<path d="M3.42857 0C1.53814 0 0 1.53814 0 3.42857C0 5.319 1.53814 6.85714 3.42857 6.85714C5.319 6.85714 6.85714 5.319 6.85714 3.42857C6.85714 1.53814 5.319 0 3.42857 0Z" fill="#AB65DC"/>
<path d="M12 0C10.1096 0 8.57141 1.53814 8.57141 3.42857C8.57141 5.319 10.1096 6.85714 12 6.85714C13.8904 6.85714 15.4286 5.319 15.4286 3.42857C15.4286 1.53814 13.8904 0 12 0Z" fill="#AB65DC"/>
<path d="M20.5714 6.85714C22.4618 6.85714 24 5.319 24 3.42857C24 1.53814 22.4618 0 20.5714 0C18.681 0 17.1428 1.53814 17.1428 3.42857C17.1428 5.319 18.681 6.85714 20.5714 6.85714Z" fill="#AB65DC"/>
</svg>
