<svg width="84" height="84" viewBox="0 0 84 84" fill="none" xmlns="http://www.w3.org/2000/svg">
<path d="M42.756 75.5328C32.2392 75.4992 22.1424 70.5768 15.708 62.2272C9.17276 53.7264 7.02236 42.3696 9.96236 32.0544C12.7848 22.1592 20.2104 13.8096 29.736 9.912C39.648 5.8464 51.1392 6.7032 60.3288 12.2304C69.216 17.5896 75.4152 27.0144 76.608 37.3464C76.7592 38.7072 76.8432 40.068 76.8432 41.4456C76.8432 43.512 80.0688 43.512 80.052 41.4456C80.0352 29.8368 74.5584 18.816 65.3352 11.76C56.0952 4.6872 43.6968 2.3688 32.508 5.5608C21.5376 8.6856 12.5496 16.8504 8.19836 27.3672C3.76316 38.1024 4.78796 50.7192 10.7688 60.648C16.716 70.5096 27.0144 77.112 38.4216 78.4896C39.8664 78.6576 41.2944 78.7416 42.756 78.7416C44.8224 78.7584 44.8224 75.5328 42.756 75.5328Z" fill="#D9A4FF"/>
<path d="M42.756 17.472C29.5176 17.472 18.7992 28.2072 18.7992 41.4288C18.7992 54.6504 29.5344 65.3856 42.756 65.3856C55.9776 65.3856 66.7128 54.6504 66.7128 41.4288C66.7128 28.2072 55.9944 17.472 42.756 17.472ZM54.5328 32.8776C53.8608 33.4992 53.1384 33.8184 52.3656 33.8184C52.08 33.8184 51.3744 33.6336 50.2656 33.2808C49.1568 32.928 48.1656 32.7432 47.3256 32.7432C46.1664 32.7432 45.2256 33.0456 44.4864 33.6504C43.7472 34.2552 43.176 35.1624 42.7728 36.3552C42.3696 37.548 42.084 38.976 41.9328 40.6392C41.7816 42.2856 41.6976 44.3016 41.6976 46.6872V53.3064C41.6976 54.9192 41.328 56.112 40.572 56.9184C39.816 57.7248 38.8584 58.128 37.6992 58.128C36.5568 58.128 35.616 57.7248 34.8768 56.9016C34.1376 56.0952 33.768 54.8856 33.768 53.3064V31.2648C33.768 27.7032 35.0616 25.9224 37.632 25.9224C38.9424 25.9224 39.9 26.3424 40.4712 27.1656C41.0592 28.0056 41.3784 29.232 41.4288 30.8448C42.3696 29.2152 43.344 27.9888 44.352 27.1656C45.3432 26.3424 46.6704 25.9224 48.3336 25.9224C49.9968 25.9224 51.6096 26.3424 53.172 27.1656C54.7344 28.0056 55.524 29.0976 55.524 30.4752C55.5408 31.4496 55.2048 32.256 54.5328 32.8776Z" fill="#D9A4FF"/>
</svg>
