<svg width="188" height="188" viewBox="0 0 188 188" fill="none" xmlns="http://www.w3.org/2000/svg">
<path d="M95.6919 169.05C72.1543 168.974 49.5567 157.958 35.1559 139.27C20.5295 120.245 15.7167 94.8272 22.2967 71.7408C28.6135 49.5944 45.2327 30.9072 66.5519 22.184C88.7359 13.0848 114.454 15.0024 135.022 27.3728C154.912 39.3672 168.786 60.4608 171.456 83.5848C171.794 86.6304 171.982 89.676 171.982 92.7592C171.982 97.384 179.202 97.384 179.164 92.7592C179.126 66.7776 166.869 42.112 146.226 26.32C125.546 10.4904 97.7975 5.30159 72.7559 12.4456C48.2031 19.4392 28.0871 37.7128 18.3487 61.2504C8.42233 85.2768 10.7159 113.514 24.1015 135.736C37.4119 157.807 60.4607 172.584 85.9911 175.667C89.2247 176.043 92.4207 176.231 95.6919 176.231C100.317 176.269 100.317 169.05 95.6919 169.05Z" fill="#D9A4FF"/>
<path d="M95.692 39.104C66.0632 39.104 42.0744 63.1304 42.0744 92.7216C42.0744 122.313 66.1008 146.339 95.692 146.339C125.283 146.339 149.31 122.313 149.31 92.7216C149.31 63.1304 125.321 39.104 95.692 39.104ZM122.05 73.5832C120.546 74.9744 118.929 75.6888 117.199 75.6888C116.56 75.6888 114.981 75.2752 112.499 74.4856C110.018 73.696 107.799 73.2824 105.919 73.2824C103.325 73.2824 101.219 73.9592 99.5648 75.3128C97.9104 76.6664 96.632 78.6968 95.7296 81.3664C94.8272 84.036 94.188 87.232 93.8496 90.9544C93.5112 94.6392 93.3232 99.1512 93.3232 104.49V119.305C93.3232 122.914 92.496 125.584 90.804 127.389C89.112 129.194 86.9688 130.096 84.3744 130.096C81.8176 130.096 79.712 129.194 78.0576 127.351C76.4032 125.546 75.576 122.839 75.576 119.305V69.9736C75.576 62.0024 78.4712 58.0168 84.224 58.0168C87.1568 58.0168 89.3 58.9568 90.5784 60.7992C91.8944 62.6792 92.6088 65.424 92.7216 69.0336C94.8272 65.3864 97.008 62.6416 99.264 60.7992C101.482 58.9568 104.453 58.0168 108.175 58.0168C111.898 58.0168 115.507 58.9568 119.004 60.7992C122.501 62.6792 124.268 65.1232 124.268 68.2064C124.306 70.3872 123.554 72.192 122.05 73.5832Z" fill="#D9A4FF"/>
</svg>
