<svg width="24" height="24" viewBox="0 0 24 24" fill="none" xmlns="http://www.w3.org/2000/svg">
<path d="M12.0017 0C8.57309 0 5.77039 2.80271 5.77039 6.2313C5.77039 9.6599 8.57309 12.4626 12.0017 12.4626C15.4303 12.4626 18.233 9.6599 18.233 6.2313C18.233 2.80271 15.4303 0 12.0017 0Z" fill="#AB65DC"/>
<path d="M22.6955 17.4422C22.5323 17.034 22.3146 16.653 22.0697 16.2993C20.818 14.4489 18.8861 13.2244 16.7092 12.9251C16.4371 12.8979 16.1378 12.9523 15.9201 13.1156C14.7772 13.9591 13.4167 14.3945 12.0017 14.3945C10.5867 14.3945 9.22616 13.9591 8.0833 13.1156C7.86559 12.9523 7.56627 12.8707 7.29418 12.9251C5.11731 13.2244 3.15814 14.4489 1.93366 16.2993C1.68877 16.653 1.47106 17.0612 1.30783 17.4422C1.22622 17.6054 1.2534 17.7959 1.33502 17.9592C1.55273 18.3401 1.82481 18.7211 2.0697 19.0476C2.45064 19.5647 2.85882 20.0272 3.32142 20.4626C3.70236 20.8435 4.13773 21.1973 4.57314 21.551C6.72278 23.1565 9.30783 24 11.9745 24C14.6412 24 17.2262 23.1564 19.3759 21.551C19.8112 21.2245 20.2466 20.8435 20.6276 20.4626C21.0629 20.0272 21.4983 19.5646 21.8793 19.0476C22.1514 18.6939 22.3963 18.3401 22.614 17.9592C22.75 17.7959 22.7772 17.6054 22.6955 17.4422Z" fill="#AB65DC"/>
</svg>
